Coordinates
version=1
nRows=27
nColumns=12
inDegrees=yes

Units are S.I. units (second, meters, Newtons, ...)
Angles are in degrees

endheader
time	SC_y	SC_z	SC_x	AC_y	AC_z	AC_x	GH_y	GH_z	GH_yy	EL_x	PS_y
       0.0              -48.64          2.923          61.48          68.48          -17.7         -3.745         -142.0          46.26          154.2          6.369          147.2
 5.726e-05              -48.64          2.924          61.47          68.48          -17.7         -3.745         -142.0          46.27          154.2          6.381          147.2
 0.0001145              -48.64          2.925          61.46          68.48          -17.7         -3.745         -142.0          46.27          154.1          6.394          147.2
 0.0001718              -48.64          2.926          61.45          68.48         -17.69         -3.745         -142.0          46.28          154.1          6.408          147.2
 0.0002291              -48.64          2.927          61.44          68.48         -17.69         -3.745         -142.0          46.29          154.1          6.423          147.2
 0.0002863              -48.63          2.928          61.43          68.48         -17.68         -3.745         -142.0          46.29          154.1          6.438          147.2
 0.0003436              -48.63          2.929          61.42          68.48         -17.68         -3.744         -142.0           46.3          154.1          6.455          147.2
 0.0004009              -48.63          2.931          61.41          68.48         -17.67         -3.744         -142.0          46.31          154.1          6.473          147.2
 0.0004581              -48.62          2.932           61.4          68.48         -17.67         -3.744         -142.0          46.32          154.0          6.492          147.2
 0.0005154              -48.62          2.934          61.39          68.48         -17.66         -3.744         -142.0          46.33          154.0          6.513          147.2
 0.0005726              -48.62          2.936          61.37          68.48         -17.66         -3.744         -142.0          46.34          154.0          6.535          147.2
 0.0006299              -48.61          2.938          61.36          68.48         -17.65         -3.743         -142.0          46.35          154.0          6.558          147.2
 0.0006872              -48.61          2.939          61.34          68.48         -17.64         -3.743         -142.0          46.36          154.0          6.584          147.2
 0.0007444               -48.6          2.942          61.32          68.48         -17.64         -3.743         -142.0          46.38          153.9          6.612          147.1
 0.0008017               -48.6          2.944           61.3          68.48         -17.63         -3.743         -142.0          46.39          153.9          6.642          147.1
  0.000859              -48.59          2.947          61.28          68.48         -17.62         -3.742         -141.9           46.4          153.9          6.674          147.1
 0.0009162              -48.59          2.949          61.26          68.48         -17.61         -3.742         -141.9          46.42          153.8          6.709          147.1
 0.0009735              -48.58          2.952          61.23          68.48          -17.6         -3.742         -141.9          46.44          153.8          6.748          147.1
  0.001031              -48.57          2.956          61.21          68.48         -17.59         -3.741         -141.9          46.46          153.7           6.79          147.1
  0.001088              -48.57          2.959          61.18          68.48         -17.57         -3.741         -141.9          46.48          153.7          6.836          147.1
  0.001145              -48.56          2.963          61.15          68.48         -17.56          -3.74         -141.9          46.51          153.7          6.886          147.1
  0.001203              -48.55          2.967          61.11          68.48         -17.55          -3.74         -141.9          46.53          153.6          6.941          147.0
   0.00126              -48.54          2.972          61.07          68.48         -17.53         -3.739         -141.9          46.56          153.5          7.003          147.0
  0.001317              -48.53          2.977          61.03          68.48         -17.51         -3.738         -141.9          46.59          153.5          7.071          147.0
  0.001374              -48.52          2.983          60.98          68.48         -17.49         -3.738         -141.9          46.63          153.4          7.146          147.0
  0.001432               -48.5           2.99          60.92          68.48         -17.47         -3.737         -141.9          46.67          153.3           7.23          146.9
  0.001489              -48.49          2.997          60.86          68.48         -17.44         -3.736         -141.9          46.71          153.2          7.325          146.9
